Motion_pl02
version=1
nRows=10
nColumns=43
inDegrees=yes
endheader
time	pelvis_tilt	pelvis_list	pelvis_rotation	pelvis_tx	pelvis_ty	pelvis_tz	hip_flexion_r	hip_adduction_r	hip_rotation_r	knee_angle_r	ankle_angle_r	subtalar_angle_r	mtp_angle_r	hip_flexion_l	hip_adduction_l	hip_rotation_l	knee_angle_l	ankle_angle_l	subtalar_angle_l	mtp_angle_l	lumbar_extension	lumbar_bending	lumbar_rotation	neck_flexion	neck_lateral_bending	neck_rotation	arm_flex_r	arm_add_r	arm_rot_r	elbow_flex_r	pro_sup_r	wrist_flex_r	wrist_dev_r	hand_finger_flex_r	arm_flex_l	arm_add_l	arm_rot_l	elbow_flex_l	pro_sup_l	wrist_flex_l	wrist_dev_l	hand_finger_flex_l
      1.63500000	      4.07127058	    -11.16385282	     93.86508479	     -0.01769131	      0.78521576	      0.31090463	     50.98577711	    -10.47615003	    -14.19274886	    -76.61786523	     25.77016545	     10.58620008	      6.46919286	     54.62260586	    -10.37254442	     -0.40472979	    -77.40884453	     29.16822860	      3.83240870	     -8.96506578	    -35.00761372	      0.48068732	      4.20611728	     39.36510486	      2.22155685	     -7.03902633	     11.65210826	    -28.11698403	     -4.69013199	     52.65233568	    118.85727432	    -13.94167004	     -9.97620216	     33.40713215	     19.42551089	    -29.50245422	     14.78840805	     54.41000215	    135.52089272	    -32.42971529	      5.13945424	     87.51876622
      1.63750000	      4.02191127	    -11.02755057	     93.84314858	     -0.01776498	      0.78770100	      0.30977989	     50.51466607	    -10.45029019	    -14.22678989	    -76.18728766	     25.58812932	     10.62339627	      6.37725381	     54.10407144	    -10.34412992	     -0.51589738	    -76.94373594	     28.98499688	      3.71930951	     -9.00530530	    -34.89658227	      0.47472768	      4.16950649	     39.11901494	      2.14257664	     -7.29375876	     11.03720936	    -27.69512453	     -5.52338430	     52.07068210	    118.67765641	    -13.95475652	     -9.98475531	     33.15588275	     18.58865749	    -29.21761788	     13.99118231	     53.78919368	    135.42416420	    -32.47149561	      5.21273806	     87.32977277
      1.64000000	      3.95678413	    -10.90158477	     93.79983856	     -0.01793000	      0.79024813	      0.30877744	     50.03587717	    -10.44255499	    -14.25177785	    -75.67572567	     25.47103993	     10.66378267	      6.26923876	     53.56503542	    -10.28059753	     -0.61109958	    -76.41440843	     28.84710197	      3.60101395	     -9.04731680	    -34.83538658	      0.45655858	      4.14217993	     38.99519129	      2.07504273	     -7.52732802	     10.38417278	    -27.46178567	     -6.16047704	     51.66781355	    118.64991943	    -13.82064081	    -10.10124422	     32.88021441	     17.75636595	    -29.05120819	     13.37446383	     53.34029127	    135.43838924	    -32.42857921	      5.17050442	     87.12566131
      1.64250000	      3.90471615	    -10.82731728	     93.79871427	     -0.01791656	      0.79263806	      0.30782755	     49.61928805	    -10.41630520	    -14.28725107	    -75.18651670	     25.35148085	     10.71279088	      6.17391638	     53.10807656	    -10.24412955	     -0.71880748	    -75.88603176	     28.71703188	      3.53263349	     -9.08671554	    -34.69954349	      0.44021996	      4.08502571	     38.85375322	      2.02184797	     -7.69976286	      9.76035210	    -27.22538087	     -6.68553792	     51.22117110	    118.67100776	    -13.70524844	    -10.12645579	     32.64300912	     16.99098152	    -28.98069652	     12.94340090	     52.86753346	    135.45611472	    -32.33888326	      5.14922967	     86.97539634
      1.64500000	      3.85167423	    -10.75390770	     93.78021607	     -0.01801767	      0.79496426	      0.30687316	     49.21591608	    -10.39770564	    -14.31171703	    -74.70751127	     25.23570409	     10.75518880	      6.08027086	     52.65306012	    -10.18534969	     -0.80721600	    -75.37209612	     28.59401408	      3.46777869	     -9.12735714	    -34.55166050	      0.42884147	      4.03916560	     38.66340795	      1.98040095	     -7.89905699	      9.13438471	    -26.99483998	     -7.23745854	     50.78766732	    118.71457053	    -13.60962452	    -10.13337065	     32.40394735	     16.21181714	    -28.88160215	     12.50921988	     52.39558742	    135.44301793	    -32.24740811	      5.14119462	     86.83355496
      1.64750000	      3.79517582	    -10.68841984	     93.75888409	     -0.01813087	      0.79725616	      0.30594406	     48.81402577	    -10.38445309	    -14.34053028	    -74.21939992	     25.12587864	     10.79678009	      5.98499629	     52.20307651	    -10.12552206	     -0.89746469	    -74.85614670	     28.48029044	      3.39981873	     -9.17059464	    -34.39717214	      0.41620639	      3.99065323	     38.47782687	      1.92822241	     -8.11398209	      8.52333587	    -26.75944964	     -7.79903982	     50.36136671	    118.79276521	    -13.50926476	    -10.13316353	     32.15479359	     15.44088859	    -28.78027526	     12.09679374	     51.92311437	    135.42992387	    -32.13843693	      5.13003333	     86.69074242
      1.65000000	      3.73910074	    -10.61973416	     93.73787203	     -0.01825642	      0.79951746	      0.30498681	     48.41058712	    -10.37337551	    -14.36898373	    -73.73658210	     25.01915446	     10.83678325	      5.88654865	     51.75226146	    -10.06216349	     -0.98627484	    -74.34521360	     28.37274925	      3.32889656	     -9.21771550	    -34.24057820	      0.40455088	      3.93970440	     38.27278468	      1.87945681	     -8.34454032	      7.90913047	    -26.52139287	     -8.37619119	     49.94005936	    118.90659285	    -13.39995320	    -10.12849901	     31.89002944	     14.67532051	    -28.67913793	     11.69560340	     51.44542711	    135.42040069	    -32.00973224	      5.11608753	     86.54068702
      1.65250000	      3.71300782	    -10.68711163	     93.72241596	     -0.01835907	      0.80150482	      0.30423424	     48.16319149	    -10.32918819	    -14.38422199	    -73.21585461	     24.92845345	     10.85730282	      5.85269221	     51.47095653	    -10.00441919	     -1.02849719	    -73.82849966	     28.28193093	      3.33400063	     -9.23871584	    -33.96924116	      0.40974329	      3.90253407	     38.19534237	      1.86199231	     -8.41618336	      7.26218188	    -26.50141760	     -8.53496624	     49.62965941	    118.93919510	    -13.36181785	    -10.08100470	     31.83777357	     13.92698944	    -28.75293521	     11.66478835	     51.10144650	    135.42022346	    -31.93951944	      5.14536163	     86.52558951
      1.65500000	      3.66608770	    -10.59356693	     93.73177082	     -0.01836212	      0.80369333	      0.30315217	     47.73150294	    -10.31772630	    -14.43736111	    -72.78437111	     24.79046672	     10.88540799	      5.76715479	     51.00171016	     -9.96938947	     -1.14021145	    -73.34421945	     28.18149718	      3.23324361	     -9.28484454	    -33.78343121	      0.40332580	      3.82485193	     37.81319445	      1.79417708	     -8.75558074	      6.70696527	    -26.08394644	     -9.30026218	     49.07350171	    118.98281925	    -13.35881641	    -10.01330930	     31.57075702	     13.18679152	    -28.55731545	     11.12108060	     50.48812149	    135.33275234	    -31.84752995	      5.20353128	     86.36779558
      1.65750000	      3.63854035	    -10.65423876	     93.71043627	     -0.01852167	      0.80563804	      0.30242459	     47.47707099	    -10.27415130	    -14.45758976	    -72.25560996	     24.70581955	     10.90238371	      5.73321518	     50.70557635	     -9.90543695	     -1.18208729	    -72.80803899	     28.09447170	      3.23031739	     -9.30752372	    -33.51354564	      0.41261049	      3.78554182	     37.72351333	      1.77756654	     -8.85392778	      6.06680151	    -26.06106536	     -9.48009456	     48.78660850	    119.02762754	    -13.31865274	     -9.98167815	     31.50925266	     12.43921808	    -28.60699281	     11.07666964	     50.14394069	    135.33318629	    -31.77020546	      5.23093989	     86.34180791
